<?xml version="1.0" encoding="utf-8"?>
<svg xmlns="http://www.w3.org/2000/svg" style="margin: auto; background: none; display: block; shape-rendering: auto;" width="280" height="250" preserveAspectRatio="xMidYMid">
<style type="text/css">
  text {
    text-anchor: middle; font-size: 28px; opacity: 0;
  }
</style>
<g style="transform-origin:140px 125px;transform:scale(1)">
<g transform="translate(140,125)">
  <g transform="translate(0,0)"><g class="path" style="opacity: 1; transform-origin: -49.94px -1.5667px; animation: 1s linear -0.55s infinite normal forwards running fade-91a6aa62-548f-49f6-a3d3-3246ef0d6191;"><path d="M4.74-13.51L4.74 0L2.23 0L2.23-19.69L5.76-19.69L17.72-6.17L17.72-19.69L20.22-19.69L20.22 0L16.69 0L4.74-13.51" fill="#290908" stroke="none" stroke-width="none" transform="translate(-61.165008544921875,8.27829849243164)" style="fill: rgb(41, 9, 8);"></path></g><g class="path" style="opacity: 1; transform-origin: -29.57px 0.348298px; animation: 1s linear -0.44s infinite normal forwards running fade-91a6aa62-548f-49f6-a3d3-3246ef0d6191;"><path d="M39.99-15.79L39.99 0L35.37 0L35.37-1.89L35.37-1.89Q34.55-0.77 33.39-0.23L33.39-0.23L33.39-0.23Q32.24 0.31 30.86 0.31L30.86 0.31L30.86 0.31Q29.05 0.31 27.63-0.33L27.63-0.33L27.63-0.33Q26.21-0.97 25.22-2.08L25.22-2.08L25.22-2.08Q24.24-3.20 23.72-4.70L23.72-4.70L23.72-4.70Q23.20-6.21 23.20-7.93L23.20-7.93L23.20-7.93Q23.20-9.65 23.72-11.16L23.72-11.16L23.72-11.16Q24.24-12.66 25.22-13.77L25.22-13.77L25.22-13.77Q26.21-14.89 27.63-15.53L27.63-15.53L27.63-15.53Q29.05-16.17 30.86-16.17L30.86-16.17L30.86-16.17Q31.77-16.17 32.60-15.90L32.60-15.90L32.60-15.90Q33.43-15.63 34.12-15.13L34.12-15.13L34.12-15.13Q34.81-14.63 35.33-13.92L35.33-13.92L35.33-13.92Q35.86-13.22 36.16-12.36L36.16-12.36L38.21-15.79L39.99-15.79zM35.34-7.93L35.34-7.93L35.34-7.93Q35.34-8.54 35.28-9.23L35.28-9.23L35.28-9.23Q35.22-9.91 35.07-10.58L35.07-10.58L35.07-10.58Q34.92-11.25 34.65-11.86L34.65-11.86L34.65-11.86Q34.38-12.47 33.97-12.94L33.97-12.94L33.97-12.94Q33.55-13.41 32.96-13.69L32.96-13.69L32.96-13.69Q32.38-13.96 31.60-13.96L31.60-13.96L31.60-13.96Q30.82-13.96 30.24-13.68L30.24-13.68L30.24-13.68Q29.67-13.40 29.26-12.93L29.26-12.93L29.26-12.93Q28.85-12.46 28.58-11.84L28.58-11.84L28.58-11.84Q28.31-11.22 28.16-10.55L28.16-10.55L28.16-10.55Q28.01-9.88 27.95-9.21L27.95-9.21L27.95-9.21Q27.89-8.53 27.89-7.93L27.89-7.93L27.89-7.93Q27.89-7.33 27.95-6.64L27.95-6.64L27.95-6.64Q28.01-5.96 28.16-5.29L28.16-5.29L28.16-5.29Q28.31-4.62 28.58-4.01L28.58-4.01L28.58-4.01Q28.85-3.39 29.26-2.92L29.26-2.92L29.26-2.92Q29.67-2.45 30.24-2.17L30.24-2.17L30.24-2.17Q30.82-1.89 31.60-1.89L31.60-1.89L31.60-1.89Q32.31-1.89 32.86-2.18L32.86-2.18L32.86-2.18Q33.41-2.47 33.83-2.97L33.83-2.97L33.83-2.97Q34.25-3.46 34.54-4.09L34.54-4.09L34.54-4.09Q34.82-4.72 35-5.39L35-5.39L35-5.39Q35.18-6.06 35.26-6.72L35.26-6.72L35.26-6.72Q35.34-7.38 35.34-7.93" fill="#290908" stroke="none" stroke-width="none" transform="translate(-61.165008544921875,8.27829849243164)" style="fill: rgb(73, 18, 18);"></path></g><g class="path" style="opacity: 1; transform-origin: -12.73px -2.5217px; animation: 1s linear -0.33s infinite normal forwards running fade-91a6aa62-548f-49f6-a3d3-3246ef0d6191;"><path d="M49.79-13.96L49.79 0L45.16 0L45.16-13.96L42.29-13.96L42.29-15.79L45.16-15.79L45.16-21.60L49.79-21.60L49.79-15.79L54.58-15.79L54.58-13.96L49.79-13.96" fill="#290908" stroke="none" stroke-width="none" transform="translate(-61.165008544921875,8.27829849243164)" style="fill: rgb(131, 26, 25);"></path></g><g class="path" style="opacity: 1; transform-origin: 12.17px -1.5967px; animation: 1s linear -0.22s infinite normal forwards running fade-91a6aa62-548f-49f6-a3d3-3246ef0d6191;"><path d="M82.84-14.81L82.84-14.81L80.50-13.82L80.50-13.82Q80.23-14.71 79.77-15.45L79.77-15.45L79.77-15.45Q79.31-16.19 78.67-16.71L78.67-16.71L78.67-16.71Q78.04-17.24 77.23-17.53L77.23-17.53L77.23-17.53Q76.43-17.83 75.47-17.83L75.47-17.83L75.47-17.83Q74.44-17.83 73.59-17.49L73.59-17.49L73.59-17.49Q72.73-17.16 72.06-16.57L72.06-16.57L72.06-16.57Q71.38-15.98 70.88-15.20L70.88-15.20L70.88-15.20Q70.37-14.42 70.03-13.54L70.03-13.54L70.03-13.54Q69.69-12.66 69.52-11.72L69.52-11.72L69.52-11.72Q69.36-10.77 69.36-9.87L69.36-9.87L69.36-9.87Q69.36-8.44 69.69-7.01L69.69-7.01L69.69-7.01Q70.03-5.59 70.76-4.46L70.76-4.46L70.76-4.46Q71.49-3.32 72.65-2.62L72.65-2.62L72.65-2.62Q73.81-1.91 75.47-1.91L75.47-1.91L75.47-1.91Q76.34-1.91 77.12-2.21L77.12-2.21L77.12-2.21Q77.90-2.50 78.54-3.01L78.54-3.01L78.54-3.01Q79.17-3.53 79.65-4.22L79.65-4.22L79.65-4.22Q80.13-4.92 80.42-5.73L80.42-5.73L82.78-4.79L82.78-4.79Q82.26-3.49 81.36-2.51L81.36-2.51L81.36-2.51Q80.46-1.53 79.30-0.89L79.30-0.89L79.30-0.89Q78.15-0.25 76.83 0.08L76.83 0.08L76.83 0.08Q75.51 0.40 74.17 0.40L74.17 0.40L74.17 0.40Q72.72 0.40 71.39 0.04L71.39 0.04L71.39 0.04Q70.05-0.31 68.91-0.97L68.91-0.97L68.91-0.97Q67.76-1.63 66.82-2.56L66.82-2.56L66.82-2.56Q65.88-3.49 65.22-4.62L65.22-4.62L65.22-4.62Q64.56-5.76 64.20-7.09L64.20-7.09L64.20-7.09Q63.83-8.42 63.83-9.87L63.83-9.87L63.83-9.87Q63.83-11.32 64.20-12.65L64.20-12.65L64.20-12.65Q64.56-13.99 65.22-15.13L65.22-15.13L65.22-15.13Q65.88-16.27 66.82-17.20L66.82-17.20L66.82-17.20Q67.76-18.13 68.91-18.79L68.91-18.79L68.91-18.79Q70.05-19.44 71.39-19.80L71.39-19.80L71.39-19.80Q72.72-20.15 74.17-20.15L74.17-20.15L74.17-20.15Q75.56-20.15 76.90-19.82L76.90-19.82L76.90-19.82Q78.23-19.50 79.38-18.83L79.38-18.83L79.38-18.83Q80.53-18.17 81.42-17.17L81.42-17.17L81.42-17.17Q82.32-16.16 82.84-14.81" fill="#290908" stroke="none" stroke-width="none" transform="translate(-61.165008544921875,8.27829849243164)" style="fill: rgb(194, 66, 41);"></path></g><g class="path" style="opacity: 1; transform-origin: 34.39px -1.5667px; animation: 1s linear -0.11s infinite normal forwards running fade-91a6aa62-548f-49f6-a3d3-3246ef0d6191;"><path d="M105.10-9.87L105.10-9.87L105.10-9.87Q105.10-8.44 104.71-7.14L104.71-7.14L104.71-7.14Q104.33-5.85 103.64-4.76L103.64-4.76L103.64-4.76Q102.95-3.66 101.99-2.78L101.99-2.78L101.99-2.78Q101.04-1.90 99.88-1.29L99.88-1.29L99.88-1.29Q98.72-0.67 97.41-0.33L97.41-0.33L97.41-0.33Q96.09 0 94.69 0L94.69 0L86.01 0L86.01-19.69L94.69-19.69L94.69-19.69Q96.09-19.69 97.40-19.36L97.40-19.36L97.40-19.36Q98.71-19.03 99.87-18.42L99.87-18.42L99.87-18.42Q101.02-17.81 101.99-16.94L101.99-16.94L101.99-16.94Q102.95-16.06 103.64-14.98L103.64-14.98L103.64-14.98Q104.33-13.89 104.71-12.60L104.71-12.60L104.71-12.60Q105.10-11.31 105.10-9.87zM99.59-9.87L99.59-9.87L99.59-9.87Q99.59-11.47 99.20-12.91L99.20-12.91L99.20-12.91Q98.81-14.36 97.99-15.45L97.99-15.45L97.99-15.45Q97.17-16.54 95.90-17.19L95.90-17.19L95.90-17.19Q94.64-17.83 92.87-17.83L92.87-17.83L91.44-17.83L91.44-1.91L92.87-1.91L92.87-1.91Q94.61-1.91 95.87-2.56L95.87-2.56L95.87-2.56Q97.14-3.21 97.97-4.31L97.97-4.31L97.97-4.31Q98.79-5.41 99.19-6.85L99.19-6.85L99.19-6.85Q99.59-8.29 99.59-9.87" fill="#290908" stroke="none" stroke-width="none" transform="translate(-61.165008544921875,8.27829849243164)" style="fill: rgb(221, 132, 55);"></path></g><g class="path" style="opacity: 1; transform-origin: 54.745px -1.6067px; animation: 1s linear 0s infinite normal forwards running fade-91a6aa62-548f-49f6-a3d3-3246ef0d6191;"><path d="M124.56-6.02L124.56-6.02L124.56-6.02Q124.56-4.74 124.24-3.77L124.24-3.77L124.24-3.77Q123.92-2.80 123.34-2.09L123.34-2.09L123.34-2.09Q122.76-1.38 121.97-0.90L121.97-0.90L121.97-0.90Q121.17-0.42 120.24-0.14L120.24-0.14L120.24-0.14Q119.30 0.15 118.25 0.27L118.25 0.27L118.25 0.27Q117.21 0.40 116.13 0.40L116.13 0.40L116.13 0.40Q114.71 0.40 113.50 0.18L113.50 0.18L113.50 0.18Q112.30-0.03 111.24-0.49L111.24-0.49L111.24-0.49Q110.18-0.94 109.20-1.67L109.20-1.67L109.20-1.67Q108.23-2.39 107.26-3.43L107.26-3.43L110.04-6.26L110.04-6.26Q110.43-5.32 111.10-4.52L111.10-4.52L111.10-4.52Q111.77-3.72 112.57-3.14L112.57-3.14L112.57-3.14Q113.37-2.57 114.23-2.24L114.23-2.24L114.23-2.24Q115.09-1.91 115.86-1.91L115.86-1.91L115.86-1.91Q116.76-1.91 117.55-2.04L117.55-2.04L117.55-2.04Q118.34-2.17 118.93-2.47L118.93-2.47L118.93-2.47Q119.52-2.78 119.85-3.27L119.85-3.27L119.85-3.27Q120.19-3.77 120.19-4.53L120.19-4.53L120.19-4.53Q120.19-5.10 119.93-5.51L119.93-5.51L119.93-5.51Q119.67-5.92 119.25-6.21L119.25-6.21L119.25-6.21Q118.84-6.51 118.30-6.71L118.30-6.71L118.30-6.71Q117.77-6.92 117.22-7.06L117.22-7.06L117.22-7.06Q116.66-7.21 116.13-7.32L116.13-7.32L116.13-7.32Q115.60-7.44 115.19-7.56L115.19-7.56L115.19-7.56Q114.38-7.79 113.50-8.06L113.50-8.06L113.50-8.06Q112.63-8.33 111.78-8.67L111.78-8.67L111.78-8.67Q110.93-9.01 110.17-9.45L110.17-9.45L110.17-9.45Q109.42-9.90 108.84-10.51L108.84-10.51L108.84-10.51Q108.27-11.12 107.93-11.92L107.93-11.92L107.93-11.92Q107.58-12.71 107.58-13.75L107.58-13.75L107.58-13.75Q107.58-15.00 107.89-15.96L107.89-15.96L107.89-15.96Q108.20-16.93 108.76-17.64L108.76-17.64L108.76-17.64Q109.32-18.35 110.09-18.83L110.09-18.83L110.09-18.83Q110.85-19.32 111.77-19.61L111.77-19.61L111.77-19.61Q112.68-19.91 113.72-20.04L113.72-20.04L113.72-20.04Q114.75-20.17 115.83-20.17L115.83-20.17L115.83-20.17Q117.30-20.17 118.51-19.89L118.51-19.89L118.51-19.89Q119.72-19.62 120.75-19.11L120.75-19.11L120.75-19.11Q121.78-18.61 122.63-17.90L122.63-17.90L122.63-17.90Q123.48-17.20 124.24-16.34L124.24-16.34L121.45-13.51L121.45-13.51Q121.12-14.49 120.54-15.29L120.54-15.29L120.54-15.29Q119.96-16.08 119.25-16.65L119.25-16.65L119.25-16.65Q118.54-17.21 117.76-17.52L117.76-17.52L117.76-17.52Q116.98-17.83 116.25-17.83L116.25-17.83L116.25-17.83Q115.31-17.83 114.52-17.70L114.52-17.70L114.52-17.70Q113.72-17.57 113.16-17.27L113.16-17.27L113.16-17.27Q112.59-16.98 112.27-16.48L112.27-16.48L112.27-16.48Q111.96-15.98 111.96-15.24L111.96-15.24L111.96-15.24Q111.96-14.66 112.19-14.25L112.19-14.25L112.19-14.25Q112.42-13.84 112.81-13.55L112.81-13.55L112.81-13.55Q113.20-13.26 113.70-13.08L113.70-13.08L113.70-13.08Q114.19-12.89 114.71-12.76L114.71-12.76L114.71-12.76Q115.24-12.62 115.75-12.52L115.75-12.52L115.75-12.52Q116.27-12.41 116.69-12.29L116.69-12.29L116.69-12.29Q117.51-12.06 118.41-11.80L118.41-11.80L118.41-11.80Q119.31-11.54 120.19-11.19L120.19-11.19L120.19-11.19Q121.06-10.84 121.86-10.39L121.86-10.39L121.86-10.39Q122.65-9.94 123.25-9.32L123.25-9.32L123.25-9.32Q123.85-8.70 124.21-7.88L124.21-7.88L124.21-7.88Q124.56-7.07 124.56-6.02" fill="#290908" stroke="none" stroke-width="none" transform="translate(-61.165008544921875,8.27829849243164)" style="fill: rgb(41, 9, 8);"></path></g></g>
</g>
</g>
<style id="fade-91a6aa62-548f-49f6-a3d3-3246ef0d6191" data-anikit="">@keyframes fade-91a6aa62-548f-49f6-a3d3-3246ef0d6191
{
  0% {
    animation-timing-function: cubic-bezier(0.2057,0.573,0.3723,0.9184);
    opacity: 1;
  }
  100% {
    opacity: 0;
  }
}</style></svg>